<?xml version="1.0" encoding="utf-8"?>
<!-- generated at drububu.com  -->
<!DOCTYPE svg PUBLIC "-//W3C//DTD SVG 1.1//EN" "http://www.w3.org/Graphics/SVG/1.1/DTD/svg11.dtd">
<svg version="1.1" preserveAspectRatio="xMinYMin meet" xmlns="http://www.w3.org/2000/svg" xmlns:xlink="http://www.w3.org/1999/xlink" x="0px" y="0px" width="16px" height="16px" viewBox="0 0 16 16">
<path d="M0 0h1v2h-1v-2z" fill="rgb(53,53,53)"/>
<path d="M1 0h2v1h-2v-1z" fill="rgb(50,50,50)"/>
<path d="M3 0h1v1h-1v-1z" fill="rgb(48,48,48)"/>
<path d="M4 0h1v1h-1v-1z" fill="rgb(44,44,44)"/>
<path d="M5 0h1v1h-1v-1z" fill="rgb(43,43,43)"/>
<path d="M6 0h2v1h-2v-1z" fill="rgb(41,41,41)"/>
<path d="M8 0h1v1h-1v-1z" fill="rgb(31,31,31)"/>
<path d="M9 0h1v1h-1v-1z" fill="rgb(56,56,56)"/>
<path d="M10 0h1v1h-1v-1z" fill="rgb(53,53,53)"/>
<path d="M11 0h1v1h-1v-1z" fill="rgb(50,50,50)"/>
<path d="M12 0h1v1h-1v-1z" fill="rgb(41,41,41)"/>
<path d="M13 0h1v1h-1v-1z" fill="rgb(34,34,34)"/>
<path d="M14 0h1v1h-1v-1z" fill="rgb(51,51,51)"/>
<path d="M15 0h1v2h-1v-2z" fill="rgb(46,46,46)"/>
<path d="M1 1h1v1h-1v-1z" fill="rgb(207,199,144)"/>
<path d="M2 1h1v1h-1v-1z" fill="rgb(206,198,141)"/>
<path d="M3 1h1v1h-1v-1z" fill="rgb(207,200,140)"/>
<path d="M4 1h1v1h-1v-1z" fill="rgb(207,203,139)"/>
<path d="M5 1h3v1h-3v-1z" fill="rgb(208,205,139)"/>
<path d="M8 1h1v1h-1v-1z" fill="rgb(207,203,139)"/>
<path d="M9 1h1v1h-1v-1z" fill="rgb(207,202,139)"/>
<path d="M10 1h1v1h-1v-1z" fill="rgb(208,204,139)"/>
<path d="M11 1h2v1h-2v-1z" fill="rgb(208,204,138)"/>
<path d="M13 1h1v1h-1v-1z" fill="rgb(208,202,136)"/>
<path d="M14 1h1v1h-1v-1z" fill="rgb(208,204,135)"/>
<path d="M0 2h1v1h-1v-1z" fill="rgb(36,36,36)"/>
<path d="M1 2h1v1h-1v-1z" fill="rgb(208,206,143)"/>
<path d="M2 2h12v10h-12v-10z" fill="rgb(8,8,8)"/>
<path d="M14 2h1v1h-1v-1z" fill="rgb(206,203,127)"/>
<path d="M15 2h1v1h-1v-1z" fill="rgb(44,44,44)"/>
<path d="M0 3h1v1h-1v-1z" fill="rgb(41,41,41)"/>
<path d="M1 3h1v2h-1v-2z" fill="rgb(209,208,139)"/>
<path d="M3 3h1v1h-1v-1z" fill="rgb(255,255,255)"/>
<path d="M14 3h1v1h-1v-1z" fill="rgb(208,205,131)"/>
<path d="M15 3h1v1h-1v-1z" fill="rgb(36,36,36)"/>
<path d="M0 4h1v1h-1v-1z" fill="rgb(53,53,53)"/>
<path d="M4 4h1v1h-1v-1z" fill="rgb(255,255,255)"/>
<path d="M14 4h1v1h-1v-1z" fill="rgb(207,203,130)"/>
<path d="M15 4h1v2h-1v-2z" fill="rgb(31,31,31)"/>
<path d="M0 5h1v1h-1v-1z" fill="rgb(39,39,39)"/>
<path d="M1 5h1v1h-1v-1z" fill="rgb(208,207,139)"/>
<path d="M3 5h1v1h-1v-1z" fill="rgb(255,255,255)"/>
<path d="M6 5h2v1h-2v-1z" fill="rgb(255,255,255)"/>
<path d="M14 5h1v1h-1v-1z" fill="rgb(207,206,133)"/>
<path d="M0 6h1v1h-1v-1z" fill="rgb(46,46,46)"/>
<path d="M1 6h1v1h-1v-1z" fill="rgb(207,206,140)"/>
<path d="M14 6h1v1h-1v-1z" fill="rgb(207,203,130)"/>
<path d="M15 6h1v1h-1v-1z" fill="rgb(30,30,30)"/>
<path d="M0 7h1v2h-1v-2z" fill="rgb(43,43,43)"/>
<path d="M1 7h1v1h-1v-1z" fill="rgb(207,206,144)"/>
<path d="M14 7h1v1h-1v-1z" fill="rgb(206,202,128)"/>
<path d="M15 7h1v1h-1v-1z" fill="rgb(55,55,55)"/>
<path d="M1 8h1v1h-1v-1z" fill="rgb(209,208,144)"/>
<path d="M14 8h1v1h-1v-1z" fill="rgb(203,197,124)"/>
<path d="M15 8h1v1h-1v-1z" fill="rgb(56,56,56)"/>
<path d="M0 9h1v4h-1v-4z" fill="rgb(74,74,74)"/>
<path d="M1 9h1v1h-1v-1z" fill="rgb(226,223,165)"/>
<path d="M14 9h1v1h-1v-1z" fill="rgb(225,221,154)"/>
<path d="M15 9h1v1h-1v-1z" fill="rgb(61,61,61)"/>
<path d="M1 10h1v1h-1v-1z" fill="rgb(226,223,168)"/>
<path d="M14 10h1v1h-1v-1z" fill="rgb(225,219,151)"/>
<path d="M15 10h1v1h-1v-1z" fill="rgb(44,44,44)"/>
<path d="M1 11h1v1h-1v-1z" fill="rgb(227,225,170)"/>
<path d="M14 11h1v1h-1v-1z" fill="rgb(222,210,145)"/>
<path d="M15 11h1v1h-1v-1z" fill="rgb(46,46,46)"/>
<path d="M1 12h1v1h-1v-1z" fill="rgb(226,225,168)"/>
<path d="M2 12h2v1h-2v-1z" fill="rgb(226,224,168)"/>
<path d="M4 12h2v1h-2v-1z" fill="rgb(226,225,168)"/>
<path d="M6 12h1v1h-1v-1z" fill="rgb(226,226,167)"/>
<path d="M7 12h1v1h-1v-1z" fill="rgb(226,223,165)"/>
<path d="M8 12h1v1h-1v-1z" fill="rgb(225,222,164)"/>
<path d="M9 12h1v1h-1v-1z" fill="rgb(225,222,162)"/>
<path d="M10 12h1v1h-1v-1z" fill="rgb(226,220,156)"/>
<path d="M11 12h1v1h-1v-1z" fill="rgb(224,217,151)"/>
<path d="M12 12h1v1h-1v-1z" fill="rgb(220,209,145)"/>
<path d="M13 12h1v1h-1v-1z" fill="rgb(220,209,143)"/>
<path d="M14 12h1v1h-1v-1z" fill="rgb(220,207,142)"/>
<path d="M15 12h1v1h-1v-1z" fill="rgb(41,41,41)"/>
<path d="M0 13h1v1h-1v-1z" fill="rgb(73,73,73)"/>
<path d="M1 13h1v1h-1v-1z" fill="rgb(226,225,163)"/>
<path d="M2 13h2v1h-2v-1z" fill="rgb(224,224,160)"/>
<path d="M4 13h1v1h-1v-1z" fill="rgb(225,225,163)"/>
<path d="M5 13h2v1h-2v-1z" fill="rgb(226,225,163)"/>
<path d="M7 13h1v1h-1v-1z" fill="rgb(227,225,162)"/>
<path d="M8 13h1v1h-1v-1z" fill="rgb(225,222,159)"/>
<path d="M9 13h1v1h-1v-1z" fill="rgb(224,221,158)"/>
<path d="M10 13h1v1h-1v-1z" fill="rgb(223,216,150)"/>
<path d="M11 13h1v1h-1v-1z" fill="rgb(223,211,145)"/>
<path d="M12 13h2v1h-2v-1z" fill="rgb(34,34,34)"/>
<path d="M14 13h1v1h-1v-1z" fill="rgb(222,209,143)"/>
<path d="M15 13h1v1h-1v-1z" fill="rgb(46,46,46)"/>
<path d="M0 14h1v1h-1v-1z" fill="rgb(76,76,76)"/>
<path d="M1 14h1v1h-1v-1z" fill="rgb(227,225,157)"/>
<path d="M2 14h1v1h-1v-1z" fill="rgb(226,224,156)"/>
<path d="M3 14h1v1h-1v-1z" fill="rgb(225,222,154)"/>
<path d="M4 14h1v1h-1v-1z" fill="rgb(225,222,155)"/>
<path d="M5 14h1v1h-1v-1z" fill="rgb(226,223,155)"/>
<path d="M6 14h2v1h-2v-1z" fill="rgb(226,221,156)"/>
<path d="M8 14h1v1h-1v-1z" fill="rgb(226,220,156)"/>
<path d="M9 14h1v1h-1v-1z" fill="rgb(225,219,153)"/>
<path d="M10 14h1v1h-1v-1z" fill="rgb(223,212,146)"/>
<path d="M11 14h1v1h-1v-1z" fill="rgb(222,209,143)"/>
<path d="M12 14h1v1h-1v-1z" fill="rgb(220,204,139)"/>
<path d="M13 14h1v1h-1v-1z" fill="rgb(219,203,138)"/>
<path d="M14 14h1v1h-1v-1z" fill="rgb(219,201,137)"/>
<path d="M15 14h1v1h-1v-1z" fill="rgb(41,41,41)"/>
<path d="M0 15h1v1h-1v-1z" fill="rgb(61,61,61)"/>
<path d="M1 15h2v1h-2v-1z" fill="rgb(46,46,46)"/>
<path d="M3 15h6v1h-6v-1z" fill="rgb(44,44,44)"/>
<path d="M9 15h1v1h-1v-1z" fill="rgb(41,41,41)"/>
<path d="M10 15h4v1h-4v-1z" fill="rgb(44,44,44)"/>
<path d="M14 15h2v1h-2v-1z" fill="rgb(46,46,46)"/>
</svg>