<?xml version="1.0" encoding="utf-8"?>
<!DOCTYPE svg PUBLIC "-//W3C//DTD SVG 1.1//EN" "http://www.w3.org/Graphics/SVG/1.1/DTD/svg11.dtd">
<svg version="1.1" preserveAspectRatio="xMinYMin meet" xmlns="http://www.w3.org/2000/svg" xmlns:xlink="http://www.w3.org/1999/xlink" x="0px" y="0px" width="16px" height="16px" viewBox="0 0 16 16">
    <rect x="0" y="0" width="1" height="1" fill="rgb(56,56,56)"></rect>
    <rect x="1" y="0" width="1" height="1" fill="rgb(53,53,53)"></rect>
    <rect x="2" y="0" width="1" height="1" fill="rgb(53,53,53)"></rect>
    <rect x="3" y="0" width="1" height="1" fill="rgb(51,51,51)"></rect>
    <rect x="4" y="0" width="1" height="1" fill="rgb(48,48,48)"></rect>
    <rect x="5" y="0" width="1" height="1" fill="rgb(47,47,47)"></rect>
    <rect x="6" y="0" width="1" height="1" fill="rgb(45,45,45)"></rect>
    <rect x="7" y="0" width="1" height="1" fill="rgb(45,45,45)"></rect>
    <rect x="8" y="0" width="1" height="1" fill="rgb(36,36,36)"></rect>
    <rect x="9" y="0" width="1" height="1" fill="rgb(59,59,59)"></rect>
    <rect x="10" y="0" width="1" height="1" fill="rgb(56,56,56)"></rect>
    <rect x="11" y="0" width="1" height="1" fill="rgb(53,53,53)"></rect>
    <rect x="12" y="0" width="1" height="1" fill="rgb(45,45,45)"></rect>
    <rect x="13" y="0" width="1" height="1" fill="rgb(39,39,39)"></rect>
    <rect x="14" y="0" width="1" height="1" fill="rgb(54,54,54)"></rect>
    <rect x="15" y="0" width="1" height="1" fill="rgb(50,50,50)"></rect>
    <rect x="0" y="1" width="1" height="1" fill="rgb(56,56,56)"></rect>
    <rect x="1" y="1" width="1" height="1" fill="rgb(220,208,128)"></rect>
    <rect x="2" y="1" width="1" height="1" fill="rgb(219,209,125)"></rect>
    <rect x="3" y="1" width="1" height="1" fill="rgb(221,210,123)"></rect>
    <rect x="4" y="1" width="1" height="1" fill="rgb(220,214,120)"></rect>
    <rect x="5" y="1" width="1" height="1" fill="rgb(219,215,119)"></rect>
    <rect x="6" y="1" width="1" height="1" fill="rgb(220,216,118)"></rect>
    <rect x="7" y="1" width="1" height="1" fill="rgb(220,216,120)"></rect>
    <rect x="8" y="1" width="1" height="1" fill="rgb(220,214,120)"></rect>
    <rect x="9" y="1" width="1" height="1" fill="rgb(220,214,120)"></rect>
    <rect x="10" y="1" width="1" height="1" fill="rgb(220,214,120)"></rect>
    <rect x="11" y="1" width="1" height="1" fill="rgb(220,214,118)"></rect>
    <rect x="12" y="1" width="1" height="1" fill="rgb(220,214,118)"></rect>
    <rect x="13" y="1" width="1" height="1" fill="rgb(220,211,116)"></rect>
    <rect x="14" y="1" width="1" height="1" fill="rgb(220,211,112)"></rect>
    <rect x="15" y="1" width="1" height="1" fill="rgb(50,50,50)"></rect>
    <rect x="0" y="2" width="1" height="1" fill="rgb(41,41,41)"></rect>
    <rect x="1" y="2" width="1" height="1" fill="rgb(220,216,124)"></rect>
    <rect x="2" y="2" width="1" height="1" fill="rgb(17,17,17)"></rect>
    <rect x="3" y="2" width="1" height="1" fill="rgb(17,17,17)"></rect>
    <rect x="4" y="2" width="1" height="1" fill="rgb(17,17,17)"></rect>
    <rect x="5" y="2" width="1" height="1" fill="rgb(17,17,17)"></rect>
    <rect x="6" y="2" width="1" height="1" fill="rgb(17,17,17)"></rect>
    <rect x="7" y="2" width="1" height="1" fill="rgb(17,17,17)"></rect>
    <rect x="8" y="2" width="1" height="1" fill="rgb(17,17,17)"></rect>
    <rect x="9" y="2" width="1" height="1" fill="rgb(17,17,17)"></rect>
    <rect x="10" y="2" width="1" height="1" fill="rgb(17,17,17)"></rect>
    <rect x="11" y="2" width="1" height="1" fill="rgb(17,17,17)"></rect>
    <rect x="12" y="2" width="1" height="1" fill="rgb(17,17,17)"></rect>
    <rect x="13" y="2" width="1" height="1" fill="rgb(17,17,17)"></rect>
    <rect x="14" y="2" width="1" height="1" fill="rgb(218,214,104)"></rect>
    <rect x="15" y="2" width="1" height="1" fill="rgb(48,48,48)"></rect>
    <rect x="0" y="3" width="1" height="1" fill="rgb(45,45,45)"></rect>
    <rect x="1" y="3" width="1" height="1" fill="rgb(220,218,118)"></rect>
    <rect x="2" y="3" width="1" height="1" fill="rgb(17,17,17)"></rect>
    <rect x="3" y="3" width="1" height="1" fill="rgb(17,17,17)"></rect>
    <rect x="4" y="3" width="1" height="1" fill="rgb(17,17,17)"></rect>
    <rect x="5" y="3" width="1" height="1" fill="rgb(17,17,17)"></rect>
    <rect x="6" y="3" width="1" height="1" fill="rgb(17,17,17)"></rect>
    <rect x="7" y="3" width="1" height="1" fill="rgb(17,17,17)"></rect>
    <rect x="8" y="3" width="1" height="1" fill="rgb(17,17,17)"></rect>
    <rect x="9" y="3" width="1" height="1" fill="rgb(17,17,17)"></rect>
    <rect x="10" y="3" width="1" height="1" fill="rgb(17,17,17)"></rect>
    <rect x="11" y="3" width="1" height="1" fill="rgb(17,17,17)"></rect>
    <rect x="12" y="3" width="1" height="1" fill="rgb(17,17,17)"></rect>
    <rect x="13" y="3" width="1" height="1" fill="rgb(17,17,17)"></rect>
    <rect x="14" y="3" width="1" height="1" fill="rgb(220,216,108)"></rect>
    <rect x="15" y="3" width="1" height="1" fill="rgb(41,41,41)"></rect>
    <rect x="0" y="4" width="1" height="1" fill="rgb(56,56,56)"></rect>
    <rect x="1" y="4" width="1" height="1" fill="rgb(220,219,118)"></rect>
    <rect x="2" y="4" width="1" height="1" fill="rgb(17,17,17)"></rect>
    <rect x="3" y="4" width="1" height="1" fill="rgb(17,17,17)"></rect>
    <rect x="4" y="4" width="1" height="1" fill="rgb(17,17,17)"></rect>
    <rect x="5" y="4" width="1" height="1" fill="rgb(17,17,17)"></rect>
    <rect x="6" y="4" width="1" height="1" fill="rgb(17,17,17)"></rect>
    <rect x="7" y="4" width="1" height="1" fill="rgb(17,17,17)"></rect>
    <rect x="8" y="4" width="1" height="1" fill="rgb(17,17,17)"></rect>
    <rect x="9" y="4" width="1" height="1" fill="rgb(17,17,17)"></rect>
    <rect x="10" y="4" width="1" height="1" fill="rgb(17,17,17)"></rect>
    <rect x="11" y="4" width="1" height="1" fill="rgb(17,17,17)"></rect>
    <rect x="12" y="4" width="1" height="1" fill="rgb(17,17,17)"></rect>
    <rect x="13" y="4" width="1" height="1" fill="rgb(17,17,17)"></rect>
    <rect x="14" y="4" width="1" height="1" fill="rgb(219,212,107)"></rect>
    <rect x="15" y="4" width="1" height="1" fill="rgb(36,36,36)"></rect>
    <rect x="0" y="5" width="1" height="1" fill="rgb(43,43,43)"></rect>
    <rect x="1" y="5" width="1" height="1" fill="rgb(217,218,120)"></rect>
    <rect x="2" y="5" width="1" height="1" fill="rgb(17,17,17)"></rect>
    <rect x="3" y="5" width="1" height="1" fill="rgb(17,17,17)"></rect>
    <rect x="4" y="5" width="1" height="1" fill="rgb(17,17,17)"></rect>
    <rect x="5" y="5" width="1" height="1" fill="rgb(17,17,17)"></rect>
    <rect x="6" y="5" width="1" height="1" fill="rgb(17,17,17)"></rect>
    <rect x="7" y="5" width="1" height="1" fill="rgb(17,17,17)"></rect>
    <rect x="8" y="5" width="1" height="1" fill="rgb(17,17,17)"></rect>
    <rect x="9" y="5" width="1" height="1" fill="rgb(17,17,17)"></rect>
    <rect x="10" y="5" width="1" height="1" fill="rgb(17,17,17)"></rect>
    <rect x="11" y="5" width="1" height="1" fill="rgb(17,17,17)"></rect>
    <rect x="12" y="5" width="1" height="1" fill="rgb(17,17,17)"></rect>
    <rect x="13" y="5" width="1" height="1" fill="rgb(17,17,17)"></rect>
    <rect x="14" y="5" width="1" height="1" fill="rgb(218,217,112)"></rect>
    <rect x="15" y="5" width="1" height="1" fill="rgb(36,36,36)"></rect>
    <rect x="0" y="6" width="1" height="1" fill="rgb(50,50,50)"></rect>
    <rect x="1" y="6" width="1" height="1" fill="rgb(216,217,121)"></rect>
    <rect x="2" y="6" width="1" height="1" fill="rgb(17,17,17)"></rect>
    <rect x="3" y="6" width="1" height="1" fill="rgb(17,17,17)"></rect>
    <rect x="4" y="6" width="1" height="1" fill="rgb(17,17,17)"></rect>
    <rect x="5" y="6" width="1" height="1" fill="rgb(17,17,17)"></rect>
    <rect x="6" y="6" width="1" height="1" fill="rgb(17,17,17)"></rect>
    <rect x="7" y="6" width="1" height="1" fill="rgb(17,17,17)"></rect>
    <rect x="8" y="6" width="1" height="1" fill="rgb(17,17,17)"></rect>
    <rect x="9" y="6" width="1" height="1" fill="rgb(17,17,17)"></rect>
    <rect x="10" y="6" width="1" height="1" fill="rgb(17,17,17)"></rect>
    <rect x="11" y="6" width="1" height="1" fill="rgb(17,17,17)"></rect>
    <rect x="12" y="6" width="1" height="1" fill="rgb(17,17,17)"></rect>
    <rect x="13" y="6" width="1" height="1" fill="rgb(17,17,17)"></rect>
    <rect x="14" y="6" width="1" height="1" fill="rgb(219,212,107)"></rect>
    <rect x="15" y="6" width="1" height="1" fill="rgb(35,35,35)"></rect>
    <rect x="0" y="7" width="1" height="1" fill="rgb(47,47,47)"></rect>
    <rect x="1" y="7" width="1" height="1" fill="rgb(218,219,127)"></rect>
    <rect x="2" y="7" width="1" height="1" fill="rgb(17,17,17)"></rect>
    <rect x="3" y="7" width="1" height="1" fill="rgb(17,17,17)"></rect>
    <rect x="4" y="7" width="1" height="1" fill="rgb(17,17,17)"></rect>
    <rect x="5" y="7" width="1" height="1" fill="rgb(17,17,17)"></rect>
    <rect x="6" y="7" width="1" height="1" fill="rgb(17,17,17)"></rect>
    <rect x="7" y="7" width="1" height="1" fill="rgb(17,17,17)"></rect>
    <rect x="8" y="7" width="1" height="1" fill="rgb(17,17,17)"></rect>
    <rect x="9" y="7" width="1" height="1" fill="rgb(17,17,17)"></rect>
    <rect x="10" y="7" width="1" height="1" fill="rgb(17,17,17)"></rect>
    <rect x="11" y="7" width="1" height="1" fill="rgb(17,17,17)"></rect>
    <rect x="12" y="7" width="1" height="1" fill="rgb(17,17,17)"></rect>
    <rect x="13" y="7" width="1" height="1" fill="rgb(17,17,17)"></rect>
    <rect x="14" y="7" width="1" height="1" fill="rgb(219,212,103)"></rect>
    <rect x="15" y="7" width="1" height="1" fill="rgb(58,58,58)"></rect>
    <rect x="0" y="8" width="1" height="1" fill="rgb(47,47,47)"></rect>
    <rect x="1" y="8" width="1" height="1" fill="rgb(220,217,126)"></rect>
    <rect x="2" y="8" width="1" height="1" fill="rgb(17,17,17)"></rect>
    <rect x="3" y="8" width="1" height="1" fill="rgb(17,17,17)"></rect>
    <rect x="4" y="8" width="1" height="1" fill="rgb(17,17,17)"></rect>
    <rect x="5" y="8" width="1" height="1" fill="rgb(17,17,17)"></rect>
    <rect x="6" y="8" width="1" height="1" fill="rgb(17,17,17)"></rect>
    <rect x="7" y="8" width="1" height="1" fill="rgb(17,17,17)"></rect>
    <rect x="8" y="8" width="1" height="1" fill="rgb(17,17,17)"></rect>
    <rect x="9" y="8" width="1" height="1" fill="rgb(17,17,17)"></rect>
    <rect x="10" y="8" width="1" height="1" fill="rgb(17,17,17)"></rect>
    <rect x="11" y="8" width="1" height="1" fill="rgb(17,17,17)"></rect>
    <rect x="12" y="8" width="1" height="1" fill="rgb(17,17,17)"></rect>
    <rect x="13" y="8" width="1" height="1" fill="rgb(17,17,17)"></rect>
    <rect x="14" y="8" width="1" height="1" fill="rgb(217,208,101)"></rect>
    <rect x="15" y="8" width="1" height="1" fill="rgb(59,59,59)"></rect>
    <rect x="0" y="9" width="1" height="1" fill="rgb(75,75,75)"></rect>
    <rect x="1" y="9" width="1" height="1" fill="rgb(237,234,147)"></rect>
    <rect x="2" y="9" width="1" height="1" fill="rgb(17,17,17)"></rect>
    <rect x="3" y="9" width="1" height="1" fill="rgb(17,17,17)"></rect>
    <rect x="4" y="9" width="1" height="1" fill="rgb(17,17,17)"></rect>
    <rect x="5" y="9" width="1" height="1" fill="rgb(17,17,17)"></rect>
    <rect x="6" y="9" width="1" height="1" fill="rgb(17,17,17)"></rect>
    <rect x="7" y="9" width="1" height="1" fill="rgb(17,17,17)"></rect>
    <rect x="8" y="9" width="1" height="1" fill="rgb(17,17,17)"></rect>
    <rect x="9" y="9" width="1" height="1" fill="rgb(17,17,17)"></rect>
    <rect x="10" y="9" width="1" height="1" fill="rgb(17,17,17)"></rect>
    <rect x="11" y="9" width="1" height="1" fill="rgb(17,17,17)"></rect>
    <rect x="12" y="9" width="1" height="1" fill="rgb(17,17,17)"></rect>
    <rect x="13" y="9" width="1" height="1" fill="rgb(17,17,17)"></rect>
    <rect x="14" y="9" width="1" height="1" fill="rgb(238,232,132)"></rect>
    <rect x="15" y="9" width="1" height="1" fill="rgb(63,63,63)"></rect>
    <rect x="0" y="10" width="1" height="1" fill="rgb(75,75,75)"></rect>
    <rect x="1" y="10" width="1" height="1" fill="rgb(237,236,153)"></rect>
    <rect x="2" y="10" width="1" height="1" fill="rgb(17,17,17)"></rect>
    <rect x="3" y="10" width="1" height="1" fill="rgb(17,17,17)"></rect>
    <rect x="4" y="10" width="1" height="1" fill="rgb(17,17,17)"></rect>
    <rect x="5" y="10" width="1" height="1" fill="rgb(17,17,17)"></rect>
    <rect x="6" y="10" width="1" height="1" fill="rgb(17,17,17)"></rect>
    <rect x="7" y="10" width="1" height="1" fill="rgb(17,17,17)"></rect>
    <rect x="8" y="10" width="1" height="1" fill="rgb(17,17,17)"></rect>
    <rect x="9" y="10" width="1" height="1" fill="rgb(17,17,17)"></rect>
    <rect x="10" y="10" width="1" height="1" fill="rgb(17,17,17)"></rect>
    <rect x="11" y="10" width="1" height="1" fill="rgb(17,17,17)"></rect>
    <rect x="12" y="10" width="1" height="1" fill="rgb(17,17,17)"></rect>
    <rect x="13" y="10" width="1" height="1" fill="rgb(17,17,17)"></rect>
    <rect x="14" y="10" width="1" height="1" fill="rgb(237,228,131)"></rect>
    <rect x="15" y="10" width="1" height="1" fill="rgb(48,48,48)"></rect>
    <rect x="0" y="11" width="1" height="1" fill="rgb(75,75,75)"></rect>
    <rect x="1" y="11" width="1" height="1" fill="rgb(237,236,157)"></rect>
    <rect x="2" y="11" width="1" height="1" fill="rgb(17,17,17)"></rect>
    <rect x="3" y="11" width="1" height="1" fill="rgb(17,17,17)"></rect>
    <rect x="4" y="11" width="1" height="1" fill="rgb(17,17,17)"></rect>
    <rect x="5" y="11" width="1" height="1" fill="rgb(17,17,17)"></rect>
    <rect x="6" y="11" width="1" height="1" fill="rgb(17,17,17)"></rect>
    <rect x="7" y="11" width="1" height="1" fill="rgb(17,17,17)"></rect>
    <rect x="8" y="11" width="1" height="1" fill="rgb(17,17,17)"></rect>
    <rect x="9" y="11" width="1" height="1" fill="rgb(17,17,17)"></rect>
    <rect x="10" y="11" width="1" height="1" fill="rgb(17,17,17)"></rect>
    <rect x="11" y="11" width="1" height="1" fill="rgb(17,17,17)"></rect>
    <rect x="12" y="11" width="1" height="1" fill="rgb(17,17,17)"></rect>
    <rect x="13" y="11" width="1" height="1" fill="rgb(17,17,17)"></rect>
    <rect x="14" y="11" width="1" height="1" fill="rgb(236,219,124)"></rect>
    <rect x="15" y="11" width="1" height="1" fill="rgb(50,50,50)"></rect>
    <rect x="0" y="12" width="1" height="1" fill="rgb(75,75,75)"></rect>
    <rect x="1" y="12" width="1" height="1" fill="rgb(235,236,152)"></rect>
    <rect x="2" y="12" width="1" height="1" fill="rgb(17,17,17)"></rect>
    <rect x="3" y="12" width="1" height="1" fill="rgb(17,17,17)"></rect>
    <rect x="4" y="12" width="1" height="1" fill="rgb(17,17,17)"></rect>
    <rect x="5" y="12" width="1" height="1" fill="rgb(17,17,17)"></rect>
    <rect x="6" y="12" width="1" height="1" fill="rgb(17,17,17)"></rect>
    <rect x="7" y="12" width="1" height="1" fill="rgb(17,17,17)"></rect>
    <rect x="8" y="12" width="1" height="1" fill="rgb(17,17,17)"></rect>
    <rect x="9" y="12" width="1" height="1" fill="rgb(17,17,17)"></rect>
    <rect x="10" y="12" width="1" height="1" fill="rgb(17,17,17)"></rect>
    <rect x="11" y="12" width="1" height="1" fill="rgb(17,17,17)"></rect>
    <rect x="12" y="12" width="1" height="1" fill="rgb(17,17,17)"></rect>
    <rect x="13" y="12" width="1" height="1" fill="rgb(17,17,17)"></rect>
    <rect x="14" y="12" width="1" height="1" fill="rgb(236,216,122)"></rect>
    <rect x="15" y="12" width="1" height="1" fill="rgb(45,45,45)"></rect>
    <rect x="0" y="13" width="1" height="1" fill="rgb(74,74,74)"></rect>
    <rect x="1" y="13" width="1" height="1" fill="rgb(236,237,145)"></rect>
    <rect x="2" y="13" width="1" height="1" fill="rgb(17,17,17)"></rect>
    <rect x="3" y="13" width="1" height="1" fill="rgb(17,17,17)"></rect>
    <rect x="4" y="13" width="1" height="1" fill="rgb(17,17,17)"></rect>
    <rect x="5" y="13" width="1" height="1" fill="rgb(17,17,17)"></rect>
    <rect x="6" y="13" width="1" height="1" fill="rgb(17,17,17)"></rect>
    <rect x="7" y="13" width="1" height="1" fill="rgb(17,17,17)"></rect>
    <rect x="8" y="13" width="1" height="1" fill="rgb(17,17,17)"></rect>
    <rect x="9" y="13" width="1" height="1" fill="rgb(17,17,17)"></rect>
    <rect x="10" y="13" width="1" height="1" fill="rgb(17,17,17)"></rect>
    <rect x="11" y="13" width="1" height="1" fill="rgb(17,17,17)"></rect>
    <rect x="12" y="13" width="1" height="1" fill="rgb(17,17,17)"></rect>
    <rect x="13" y="13" width="1" height="1" fill="rgb(17,17,17)"></rect>
    <rect x="14" y="13" width="1" height="1" fill="rgb(239,218,121)"></rect>
    <rect x="15" y="13" width="1" height="1" fill="rgb(50,50,50)"></rect>
    <rect x="0" y="14" width="1" height="1" fill="rgb(77,77,77)"></rect>
    <rect x="1" y="14" width="1" height="1" fill="rgb(237,235,135)"></rect>
    <rect x="2" y="14" width="1" height="1" fill="rgb(236,235,134)"></rect>
    <rect x="3" y="14" width="1" height="1" fill="rgb(237,233,133)"></rect>
    <rect x="4" y="14" width="1" height="1" fill="rgb(237,233,135)"></rect>
    <rect x="5" y="14" width="1" height="1" fill="rgb(238,234,134)"></rect>
    <rect x="6" y="14" width="1" height="1" fill="rgb(237,231,135)"></rect>
    <rect x="7" y="14" width="1" height="1" fill="rgb(237,231,135)"></rect>
    <rect x="8" y="14" width="1" height="1" fill="rgb(237,231,135)"></rect>
    <rect x="9" y="14" width="1" height="1" fill="rgb(238,229,134)"></rect>
    <rect x="10" y="14" width="1" height="1" fill="rgb(236,219,124)"></rect>
    <rect x="11" y="14" width="1" height="1" fill="rgb(239,218,121)"></rect>
    <rect x="12" y="14" width="1" height="1" fill="rgb(237,213,117)"></rect>
    <rect x="13" y="14" width="1" height="1" fill="rgb(236,212,116)"></rect>
    <rect x="14" y="14" width="1" height="1" fill="rgb(237,210,115)"></rect>
    <rect x="15" y="14" width="1" height="1" fill="rgb(45,45,45)"></rect>
    <rect x="0" y="15" width="1" height="1" fill="rgb(63,63,63)"></rect>
    <rect x="1" y="15" width="1" height="1" fill="rgb(50,50,50)"></rect>
    <rect x="2" y="15" width="1" height="1" fill="rgb(50,50,50)"></rect>
    <rect x="3" y="15" width="1" height="1" fill="rgb(48,48,48)"></rect>
    <rect x="4" y="15" width="1" height="1" fill="rgb(48,48,48)"></rect>
    <rect x="5" y="15" width="1" height="1" fill="rgb(48,48,48)"></rect>
    <rect x="6" y="15" width="1" height="1" fill="rgb(48,48,48)"></rect>
    <rect x="7" y="15" width="1" height="1" fill="rgb(48,48,48)"></rect>
    <rect x="8" y="15" width="1" height="1" fill="rgb(48,48,48)"></rect>
    <rect x="9" y="15" width="1" height="1" fill="rgb(45,45,45)"></rect>
    <rect x="10" y="15" width="1" height="1" fill="rgb(48,48,48)"></rect>
    <rect x="11" y="15" width="1" height="1" fill="rgb(48,48,48)"></rect>
    <rect x="12" y="15" width="1" height="1" fill="rgb(48,48,48)"></rect>
    <rect x="13" y="15" width="1" height="1" fill="rgb(48,48,48)"></rect>
    <rect x="14" y="15" width="1" height="1" fill="rgb(50,50,50)"></rect>
    <rect x="15" y="15" width="1" height="1" fill="rgb(50,50,50)"></rect>
</svg>