<?xml version="1.0" standalone="no"?>
<!DOCTYPE svg PUBLIC "-//W3C//DTD SVG 20010904//EN"
 "http://www.w3.org/TR/2001/REC-SVG-20010904/DTD/svg10.dtd">
<svg version="1.0" xmlns="http://www.w3.org/2000/svg"
 width="185.000000pt" height="185.000000pt" viewBox="0 0 185.000000 185.000000"
 preserveAspectRatio="xMidYMid meet">

<g transform="translate(0.000000,185.000000) scale(0.100000,-0.100000)"
fill="#000000" stroke="none">
<path d="M40 930 l0 -890 890 0 890 0 0 890 0 890 -890 0 -890 0 0 -890z
m1640 140 l0 -600 -750 0 -750 0 0 600 0 600 750 0 750 0 0 -600z m0 -810 l0
-60 -180 0 -180 0 0 60 0 60 180 0 180 0 0 -60z"/>
<path d="M240 1530 l0 -60 60 0 60 0 0 -60 0 -60 -60 0 -60 0 0 -60 0 -60 60
0 60 0 0 60 0 60 60 0 60 0 0 60 0 60 -60 0 -60 0 0 60 0 60 -60 0 -60 0 0
-60z"/>
<path d="M600 1290 l0 -60 120 0 120 0 0 60 0 60 -120 0 -120 0 0 -60z"/>
</g>
</svg>
